<svg id="Group_362" data-name="Group 362" xmlns="http://www.w3.org/2000/svg" width="23.266" height="23.267" viewBox="0 0 23.266 23.267">
  <path id="Path_1861" data-name="Path 1861" d="M17.695,59.3a1.63,1.63,0,0,0-2.464,0c-.576.571-1.152,1.143-1.719,1.724a.34.34,0,0,1-.474.087c-.373-.2-.77-.368-1.128-.591A17.874,17.874,0,0,1,7.6,56.594a10.209,10.209,0,0,1-1.544-2.474.354.354,0,0,1,.087-.455c.576-.557,1.138-1.128,1.7-1.7a1.637,1.637,0,0,0,0-2.523c-.45-.455-.9-.9-1.351-1.356s-.925-.934-1.394-1.394a1.641,1.641,0,0,0-2.464,0c-.581.571-1.138,1.157-1.728,1.719a2.806,2.806,0,0,0-.881,1.893,8.021,8.021,0,0,0,.62,3.452,20.977,20.977,0,0,0,3.723,6.2A23.04,23.04,0,0,0,12,65.933a11.035,11.035,0,0,0,4.227,1.23,3.1,3.1,0,0,0,2.658-1.012c.494-.552,1.051-1.055,1.574-1.583a1.647,1.647,0,0,0,.01-2.508Q19.084,60.673,17.695,59.3Z" transform="translate(-0.006 -43.904)" fill="#7bb5e2"/>
  <path id="Path_1862" data-name="Path 1862" d="M243.1,102.885l1.787-.305A8.019,8.019,0,0,0,238.106,96l-.252,1.8a6.2,6.2,0,0,1,5.248,5.089Z" transform="translate(-226.338 -91.352)" fill="#7bb5e2"/>
  <path id="Path_1863" data-name="Path 1863" d="M250.559,3.767A13.173,13.173,0,0,0,243.006,0l-.252,1.8a11.495,11.495,0,0,1,9.727,9.427l1.787-.305A13.27,13.27,0,0,0,250.559,3.767Z" transform="translate(-231.001)" fill="#7bb5e2"/>
</svg>
